<svg xmlns="http://www.w3.org/2000/svg" viewBox="0 0 512 512" width="512" height="512">
  <defs>
    <linearGradient id="bg" x1="0" y1="0" x2="1" y2="1">
      <stop offset="0%" stop-color="#1976d2"/>
      <stop offset="100%" stop-color="#0d47a1"/>
    </linearGradient>
  </defs>

  <!-- Background with rounded corners -->
  <rect x="0" y="0" width="512" height="512" rx="96" fill="url(#bg)"/>

  <!-- Person silhouette — head -->
  <circle cx="256" cy="152" r="44" fill="white"/>
  <!-- Person silhouette — body/shoulders -->
  <path d="M 188 280 Q 188 232 256 232 Q 324 232 324 280 L 312 360 L 200 360 Z" fill="white"/>

  <!-- Node 1 (done) -->
  <circle cx="120" cy="420" r="20" fill="white"/>
  <path d="M 108 420 L 115 428 L 133 412" stroke="#1976d2" stroke-width="4" fill="none" stroke-linecap="round" stroke-linejoin="round"/>

  <!-- Node 2 (done) -->
  <circle cx="216" cy="400" r="20" fill="white"/>
  <path d="M 204 400 L 211 408 L 229 392" stroke="#1976d2" stroke-width="4" fill="none" stroke-linecap="round" stroke-linejoin="round"/>

  <!-- Node 3 (current) -->
  <circle cx="320" cy="400" r="28" fill="#ff9800" stroke="white" stroke-width="5"/>
  <text x="320" y="408" text-anchor="middle" font-size="22" font-weight="700" fill="white" font-family="Roboto, Arial, sans-serif">3</text>

  <!-- Node 4 (future) -->
  <circle cx="416" cy="420" r="20" fill="none" stroke="white" stroke-width="5" opacity="0.5"/>

  <!-- Dotted connectors -->
  <circle cx="152" cy="414" r="4" fill="white" opacity="0.5"/>
  <circle cx="168" cy="411" r="4" fill="white" opacity="0.5"/>
  <circle cx="184" cy="408" r="4" fill="white" opacity="0.5"/>
  <circle cx="248" cy="400" r="4" fill="white" opacity="0.5"/>
  <circle cx="265" cy="400" r="4" fill="white" opacity="0.5"/>
  <circle cx="282" cy="400" r="4" fill="white" opacity="0.5"/>
  <circle cx="352" cy="406" r="4" fill="white" opacity="0.5"/>
  <circle cx="370" cy="410" r="4" fill="white" opacity="0.5"/>
  <circle cx="388" cy="414" r="4" fill="white" opacity="0.5"/>
</svg>
